<?xml version="1.0" encoding="UTF-8" standalone="no"?>
<svg
   width="150pt"
   height="150pt"
   viewBox="0 0 200 200"
   version="1.1"
   id="svg4"
   xmlns="http://www.w3.org/2000/svg"
   xmlns:svg="http://www.w3.org/2000/svg"
   xmlns:rdf="http://www.w3.org/1999/02/22-rdf-syntax-ns#"
   xmlns:cc="http://creativecommons.org/ns#"
   xmlns:dc="http://purl.org/dc/elements/1.1/">
  <metadata
     id="metadata10">
    <rdf:RDF>
      <cc:Work
         rdf:about="">
        <dc:format>image/svg+xml</dc:format>
        <dc:type
           rdf:resource="http://purl.org/dc/dcmitype/StillImage" />
        <cc:license
           rdf:resource="http://creativecommons.org/publicdomain/zero/1.0/" />
      </cc:Work>
      <cc:License
         rdf:about="http://creativecommons.org/publicdomain/zero/1.0/">
        <cc:permits
           rdf:resource="http://creativecommons.org/ns#Reproduction" />
        <cc:permits
           rdf:resource="http://creativecommons.org/ns#Distribution" />
        <cc:permits
           rdf:resource="http://creativecommons.org/ns#DerivativeWorks" />
      </cc:License>
    </rdf:RDF>
  </metadata>
  <defs
     id="defs8">
    <marker
       style="overflow:visible"
       id="Arrow1Lstart"
       refX="0.0"
       refY="0.0"
       orient="auto">
      <path
         transform="scale(0.8) translate(12.5,0)"
         style="fill-rule:evenodd;stroke:#000000;stroke-width:1.0pt"
         d="M 0.0,0.0 L 5.0,-5.0 L -12.5,0.0 L 5.0,5.0 L 0.0,0.0 z "
         id="path1040" />
    </marker>
  </defs>
  <g
     transform="matrix(0.41666667,0,0,0.41666667,-66.666668,-8.0000004e-7)"
     id="g1038">
    <path
       fill="#5bcefa"
       d="M 0,0 H 800 V 480 H 0 Z"
       id="path1021" />
    <path
       fill="#f5a9b8"
       d="M 0,96 H 800 V 384 H 0 Z"
       id="path1023" />
    <path
       fill="#ffffff"
       d="m 0,192 h 800 v 96 H 0 Z"
       id="path1025" />
  </g>
  <path
     fill="#1a7dc0"
     d="m 156.7625,47.662486 -24,100.800024 c 0,0 -37.000003,-10.5 -50.500004,-15 L 126.2625,79.862486 65.262496,128.06251 24.562495,114.66249 Z m -74.200004,97.300024 15.400001,5 -15.900001,23.7 z"
     id="path2" />
  <circle
     style="fill:none;fill-opacity:1;stroke:#1a7dc0;stroke-width:10;stroke-miterlimit:4;stroke-dasharray:none;stroke-opacity:1"
     id="path835"
     cx="100"
     cy="100"
     r="95.000038" />
</svg>
